<svg id="icons" xmlns="http://www.w3.org/2000/svg" width="0" height="0">
  <defs>
    <g id="arrow">
      <path d="M2329.12,17.91c-130.24,0-235.83,105.59-235.83,235.83s105.59,235.83,235.83,235.83S2565,384,2565,253.74,2459.41,17.91,2329.12,17.91ZM2439.86,276.1,2348,367.73c-11.63,11.63-30.56,11.19-42.19-.49s-11.63-31.58,0-43.21l41.12-43h-104c-18.66,0-33.78-12.84-33.78-31.5s15.12-31.5,33.78-31.5h98.7l-35.79-36.12a30.17,30.17,0,0,1,0-42.44,29.79,29.79,0,0,1,42.19-.06l91.85,91.83a29.38,29.38,0,0,1,8.68,22.45A29.44,29.44,0,0,1,2439.86,276.1Z" transform="translate(-13.88 -2.16)"/>
    </g>
    <g id="energy">
      <path d="M1881.21,293.72c-2.49,3.21-5.41,6.69-8.51,10.4l-.62.72c-13.33,15.91-28.46,34-34.6,56.43-.87,3.21-1.83,8-2.08,17.15h-48.9c-.21-9.74-1.2-14.74-2.09-18.11-6.13-22.77-21.23-40.54-33.37-54.82l-.21-.25c-3.43-4-6.67-7.85-9.54-11.56a89.91,89.91,0,0,1-19-55.59c0-49.78,39.93-90.27,89-90.27s89,40.49,89,90.27a89.86,89.86,0,0,1-19,55.63M1810,114A123.64,123.64,0,0,0,1686.5,237.54a121.91,121.91,0,0,0,26.42,76.14c3.4,4.34,7,8.5,10.78,12.89l.21.25c11.6,13.47,23.59,27.4,28.08,43.8,1,3.76,1.16,11,1.1,16.51v9.43a15.64,15.64,0,0,0,15.63,15.63h81.87a15.64,15.64,0,0,0,15.63-15.63V387c-.06-7.26.32-12.55,1.07-15.29,4.52-16.29,17.81-31.94,29.64-45.87l.52-.59c3.42-4,6.64-7.81,9.57-11.54a121.92,121.92,0,0,0,26.46-76.19A123.64,123.64,0,0,0,1810,114" transform="translate(-13.88 -2.16)"/>
      <path d="M1850.59,419.15h-81.86c-8.64,0-15.63,7.52-15.63,16.8s7,16.82,15.63,16.82h81.87c8.64,0,15.63-7.53,15.63-16.82s-7-16.8-15.65-16.8" transform="translate(-13.88 -2.16)"/>
      <path d="M1830,459.82l-40.93.37c-8.64.08-15.56,7.67-15.48,17s7.16,16.75,15.78,16.67l40.93-.37c8.64-.08,15.56-7.67,15.48-17s-7.15-16.75-15.78-16.67" transform="translate(-13.88 -2.16)"/>
      <path d="M2025.73,218.56h-53.94c-8.64,0-15.63,7.75-15.63,17.31s7,17.3,15.63,17.3h53.94c8.64,0,15.63-7.75,15.63-17.3s-7-17.31-15.63-17.31" transform="translate(-13.88 -2.16)"/>
      <path d="M1663.84,236.28c0-9.32-7-16.89-15.63-16.89h-53.94c-8.62,0-15.63,7.56-15.63,16.89s7,16.89,15.63,16.89h53.94c8.64,0,15.63-7.56,15.63-16.89" transform="translate(-13.88 -2.16)"/>
      <path d="M1812.1,93.07c9.79,0,17.73-7.13,17.73-15.94v-55c0-8.8-7.93-15.94-17.73-15.94s-17.73,7.13-17.73,15.94v55c0,8.8,7.93,15.94,17.73,15.94" transform="translate(-13.88 -2.16)"/>
      <path d="M1936.42,339.33a16.35,16.35,0,0,0-22.92,0,15.9,15.9,0,0,0,0,22.66L1953,401a16.31,16.31,0,0,0,22.91,0,15.86,15.86,0,0,0,0-22.64Z" transform="translate(-13.88 -2.16)"/>
      <path d="M1685.56,134.07a16,16,0,1,0,22.64-22.63l-39-39.06A16,16,0,1,0,1646.52,95Z" transform="translate(-13.88 -2.16)"/>
      <path d="M1683.9,338.54l-39.06,39.53a16.33,16.33,0,0,0,0,22.91,15.9,15.9,0,0,0,22.66,0l39.06-39.53a16.34,16.34,0,0,0,0-22.91,15.89,15.89,0,0,0-22.66,0" transform="translate(-13.88 -2.16)"/>
      <path d="M1923.1,138.76a16,16,0,0,0,11.32-4.68L1973.49,95a16,16,0,0,0-22.66-22.64l-39,39.06a16,16,0,0,0,11.32,27.33" transform="translate(-13.88 -2.16)" />
    </g>
    <g id="speakers">
      <path d="M1214.75,122.16a22.4,22.4,0,1,1-22.41,22.39,22.41,22.41,0,0,1,22.41-22.39m0,66.64a44.24,44.24,0,1,0-44.23-44.24,44.29,44.29,0,0,0,44.23,44.24" transform="translate(-13.88 -2.16)"/>
      <path d="M1289,337.71a9.7,9.7,0,0,1-9.69,9.69h-9.69V257.07h-21.82V469.69c-5.14,1.82-16.47,1.77-21.4-.09V354.74h-21.82V469c-5.29,2-17.58,2-22.86,0v-212h-21.82V347.4h-9.7a9.7,9.7,0,0,1-9.69-9.69V234.1a9.69,9.69,0,0,1,9.69-9.68h129.13a9.69,9.69,0,0,1,9.69,9.68ZM1226.27,473c0-.29.12-.54.12-.83v-.59a6,6,0,0,1,.17,1.42Zm53-270.44H1150.18a31.55,31.55,0,0,0-31.51,31.51V337.71a31.56,31.56,0,0,0,31.51,31.52h9.7v103c0,12.45,12.74,20.17,33.25,20.17,8.87,0,16.18-1.51,21.73-4.16,5.53,2.95,13.07,4.64,22.31,4.64,20,0,32.44-7.59,32.44-19.82V369.23h9.69a31.56,31.56,0,0,0,31.51-31.52V234.1a31.55,31.55,0,0,0-31.51-31.51" transform="translate(-13.88 -2.16)"/>
      <path d="M1440.85,31s-.1-.14.11,0c-.09-.08-14.39-11.42-22.5-15.35-17.36-8.85-37.55-13.53-58.38-13.53-58.6,0-106.27,36.91-106.27,82.28,0,21.68,10.64,42,30,57.35a47.5,47.5,0,0,1-.42,9.51,48.73,48.73,0,0,1-6.81,18.57,11.25,11.25,0,0,0,9.58,17.15,10.46,10.46,0,0,0,1.6-.12,85.59,85.59,0,0,0,27.33-8.76,83.49,83.49,0,0,0,19.36-13.84,116.46,116.46,0,0,0,25.76,2.42c38.58-1.12,55.25-11.35,65.22-17.48l0,0c26-15.73,40.88-39.36,40.88-64.83C1466.33,64.85,1457.29,45.87,1440.85,31ZM1359.71,146.9a114.83,114.83,0,0,1-33.93-5,11.11,11.11,0,0,0-3.47,2.64A60.75,60.75,0,0,1,1305.06,158q.34-1.72.59-3.45a69.9,69.9,0,0,0,0-20.47,11.19,11.19,0,0,0-.23-1.11c-19.71-11.55-32.32-29.25-32.32-49.09,0-34.81,38.79-63,86.64-63s86.64,28.22,86.64,63S1407.56,146.9,1359.71,146.9Z" transform="translate(-13.88 -2.16)"/>
      <path d="M1321.05,73.4a9.42,9.42,0,1,0,9.42,9.42,9.43,9.43,0,0,0-9.42-9.42" transform="translate(-13.88 -2.16)"/>
      <path d="M1356.83,73.4a9.42,9.42,0,1,0,9.42,9.42,9.43,9.43,0,0,0-9.42-9.42" transform="translate(-13.88 -2.16)"/>
      <path d="M1390.92,73.4a9.42,9.42,0,1,0,9.42,9.42,9.43,9.43,0,0,0-9.42-9.42" transform="translate(-13.88 -2.16)"/>
    </g>
    <g id="cogs">
      <path d="M779.66,190.14c-13.64-.24-16.71-7.29-16.73-19.15a44.92,44.92,0,0,0-4.41-18.32c-4.47-9.58-5.83-16.9,5.37-23.18,8.1-4.54,10.84-12.89,5.16-21.21-5.91-8.66-15.45-10.8-23-4.09-9.5,8.41-15.77,6.16-23.88-1.26a54.13,54.13,0,0,0-17.86-10.51C694.15,88.75,688,84.54,691,71.94c2.16-9.19-3.28-16.37-13-17.56-9.48-1.15-17,4.26-17.62,13.43-.82,12.54-7.06,15.36-18,16.34-8,.71-16,3.75-23.42,7.16s-12.47,3.73-17.28-4c-5.83-9.37-15.1-12.91-24.26-6.09s-8.56,16.68-.93,24.89c6.31,6.81,6,12.09.06,19.06-4.83,5.68-9.46,12.47-11.31,19.54-3.19,12.15-8.74,16.69-21.49,13.72-10.4-2.42-17.16,2.91-18.29,13.87-1.07,10.17,4.51,16.59,14,16.35,15.16-.36,18.65,8.16,20,20.58a42.78,42.78,0,0,0,5,16.18c5.28,9.42,4.06,15.58-5.62,21.36S543.6,261.83,552,272.06c8.16,9.94,18.32,7.25,26.42-1s14.8-6.78,22.65.25a39.71,39.71,0,0,0,14.73,8.38c11.78,3.49,16,9.75,12.8,22.15-2.93,11.4,1.59,21.27,13.84,22.6,11.42,1.25,17.23-7.24,17.25-18.16,0-12.73,5.7-18.16,18.23-18a29.19,29.19,0,0,0,12.85-2.89c11.54-5.64,21.27-6.79,27.87,7.07,2.28,4.78,7.09,7,12.31,8,7.13.93,12.43-2.16,15.94-8,4.19-7,2.35-13.92-3.16-19-10.1-9.3-9.2-17.22.51-26.23,4-3.71,6.81-9.28,8.71-14.52,4-10.91,9.62-16.1,22.18-12.37,10.08,3,17.67-1.91,19.4-12.62C796.29,196.79,790,190.32,779.66,190.14Zm-47.54,5.72c-5.37,39.12-42.58,67.23-81.86,61.83s-67.07-42.55-61.24-82c5.72-38.49,42-66.2,80.53-61.43S737.41,157.23,732.12,195.86Z" transform="translate(-13.88 -2.16)" />
      <path d="M1001.36,300.47c10.14-1.37,14.93-8.76,12.21-19-2.8-10.46-10.95-13.7-20.23-9.74-12.21,5.22-17.77.19-22.49-10.34a43.67,43.67,0,0,0-11.23-14.52c-7.79-6.73-11.91-12.69-4.47-22.75,5.39-7.27,4.49-15.77-3.88-20.89-8.71-5.34-18-3.44-22.12,5.55-5.09,11.26-11.55,11.76-21.72,8.41A52.52,52.52,0,0,0,887.36,215c-10.43.78-17.55-.52-19.95-12.9-1.74-9-9.43-13.25-18.53-10.43-8.88,2.75-13.42,10.57-10.31,19,4.28,11.47-.15,16.46-9.47,21.7-6.81,3.82-12.75,9.73-17.95,15.7s-9.6,8.28-17,3.31c-8.91-6-18.57-5.45-24,4.26s-1,18.23,9.1,22.48c8.32,3.52,10.15,8.34,7.65,16.92-2,7-3.43,14.86-2.27,21.86,2,12.06-1.11,18.31-13.61,20.76-10.21,2-14.09,9.43-10.73,19.62,3.11,9.46,10.62,12.95,19,9,13.31-6.37,19.83-.18,25.93,10.33a41.66,41.66,0,0,0,10.86,12.39c8.47,6.26,9.82,12.22,3.54,21.23s-7.45,19.45,4.09,25.19c11.22,5.58,19.17-.86,23.08-11.38S857.25,412,867,415.16a38.59,38.59,0,0,0,16.42,1.59c11.87-1.61,18.12,2.28,20.23,14.57,1.94,11.3,9.87,18.26,21.3,14.57,10.65-3.45,12.43-13.32,8.09-23-5.06-11.31-2.17-18.4,9-23.22a28.68,28.68,0,0,0,10.27-7.7c8-9.62,16.19-14.51,27.58-4.82,3.94,3.34,9.11,3.44,14.12,2.18,6.7-2,10.19-6.87,11-13.48.92-7.92-3.46-13.31-10.39-15.62-12.68-4.25-15-11.64-10-23.52,2.07-4.89,2.35-10.95,1.95-16.37C985.75,309,988.71,302.17,1001.36,300.47Zm-96.07,82.92c-37.13,10.89-76.57-11.06-87.11-48.47-10.28-36.47,10.95-75.56,47.05-86.68s77.45,11.15,88.15,47.59C964.21,332.71,942.34,372.54,905.29,383.39Z" transform="translate(-13.88 -2.16)"/>
    </g>
    <g id="people">
      <path d="M101.87,417.15a47.31,47.31,0,0,1-18.61,0V201.81H56.1v90.12H48.56A7.53,7.53,0,0,1,41,284.41V178.28a7.52,7.52,0,0,1,7.52-7.52h66.89V143.58H48.56a34.74,34.74,0,0,0-34.68,34.7V284.41A34.72,34.72,0,0,0,48.56,319.1H56.1V422.18c0,14.22,14,23.06,36.47,23.06S129,436.4,129,422.18v-68H101.87Z" transform="translate(-13.88 -2.16)"/>
      <path d="M114.71,66A20.55,20.55,0,1,1,94.16,86.54,20.57,20.57,0,0,1,114.71,66m0,68.27A47.72,47.72,0,1,0,67,86.54a47.77,47.77,0,0,0,47.71,47.73" transform="translate(-13.88 -2.16)"/>
      <path d="M385.14,66A20.55,20.55,0,1,1,364.6,86.54,20.57,20.57,0,0,1,385.14,66m0,68.27a47.72,47.72,0,1,0-47.71-47.73,47.77,47.77,0,0,0,47.71,47.73" transform="translate(-13.88 -2.16)"/>
      <path d="M451.29,143.58H384.4v27.18h66.89a7.52,7.52,0,0,1,7.52,7.52V284.42a7.52,7.52,0,0,1-7.52,7.51h-7.52V201.8H416.59V417.15a47.87,47.87,0,0,1-18.61,0v-63H370.82v68.06c0,14.22,14,23.06,36.47,23.06s36.48-8.84,36.48-23.06V319.1h7.52A34.73,34.73,0,0,0,486,284.42V178.28a34.74,34.74,0,0,0-34.68-34.7" transform="translate(-13.88 -2.16)"/>
      <path d="M249.93,33.77A27.88,27.88,0,1,1,222,61.64a27.89,27.89,0,0,1,27.89-27.87m0,82.93a55.05,55.05,0,1,0-55-55.06,55.13,55.13,0,0,0,55,55.06" transform="translate(-13.88 -2.16)"/>
      <path d="M342.34,302a12.07,12.07,0,0,1-12.06,12.06H318.22V201.68H291.06V466.3c-6.39,2.26-20.49,2.2-26.64-.12v-143H237.26V465.5c-6.58,2.45-21.89,2.45-28.45,0V201.68H181.64V314.1H169.57A12.07,12.07,0,0,1,157.51,302v-129a12.07,12.07,0,0,1,12.06-12H330.28a12.07,12.07,0,0,1,12.06,12Zm-78.06,168.4c0-.36.14-.67.14-1v-.74a7.47,7.47,0,0,1,.22,1.77Zm66-336.58H169.57a39.27,39.27,0,0,0-39.22,39.22V302a39.28,39.28,0,0,0,39.22,39.23h12.07V469.41c0,15.49,15.86,25.1,41.38,25.1,11,0,20.13-1.88,27-5.17,6.88,3.67,16.26,5.77,27.77,5.77,24.9,0,40.38-9.45,40.38-24.67V341.27h12.06A39.28,39.28,0,0,0,369.5,302v-129a39.27,39.27,0,0,0-39.22-39.22" transform="translate(-13.88 -2.16)" />
    </g>
  </defs>
</svg>
