<?xml version="1.0" encoding="utf-8"?>
<!-- Generator: Adobe Illustrator 16.0.0, SVG Export Plug-In . SVG Version: 6.00 Build 0)  -->
<!DOCTYPE svg PUBLIC "-//W3C//DTD SVG 1.1//EN" "http://www.w3.org/Graphics/SVG/1.1/DTD/svg11.dtd">
<svg version="1.1" id="Layer_1" xmlns="http://www.w3.org/2000/svg" xmlns:xlink="http://www.w3.org/1999/xlink" x="0px" y="0px"
	  viewBox="0 0 360 360" enable-background="new 0 0 360 360" xml:space="preserve">
<path fill="#FFFFFF" d="M-260.081-93.919c-14.526-0.01-41.463-0.161-50.935-0.157c-26.701,0.006-47.583-23.354-47.583-53.52
	c0-30.16,27.283-47.604,50.266-47.601c13.038-0.004,135.456,0.988,148.537,0.997c9.558-0.004,42.638-2.273,58.864,13.965
	c16.464,16.459,14.384,39.933,14.384,59.484c0,19.547,1.067,129.394,1.067,144.662c0,18.836-9.309,53.688-53.681,53.688
	c-19.073,0.006-48.479-20.715-48.479-52.141l-0.506-48.182c-7.016,7.015-111.167,111.162-111.167,111.162l-70.319-0.199
	l-1.022-74.269L-260.081-93.919z"/>
<path d="M120.732,315.715c121.173,0,187.45-100.392,187.45-187.449c0-2.851,0-5.69-0.192-8.515
	c12.894-9.326,24.021-20.874,32.869-34.103c-12.025,5.328-24.78,8.823-37.84,10.366c13.754-8.233,24.047-21.184,28.964-36.439
	C319.05,67.249,304.9,72.656,290.15,75.566c-24.954-26.53-66.687-27.811-93.217-2.861c-17.107,16.09-24.368,40.068-19.057,62.946
	C124.905,132.996,75.552,107.977,42.1,66.82c-17.487,30.102-8.555,68.611,20.397,87.945c-10.485-0.31-20.74-3.14-29.902-8.247
	c0,0.269,0,0.552,0,0.834c0.009,31.362,22.115,58.372,52.855,64.581c-9.699,2.646-19.875,3.033-29.748,1.133
	c8.63,26.837,33.364,45.223,61.55,45.75c-23.329,18.335-52.148,28.288-81.818,28.258c-5.242-0.012-10.479-0.326-15.683-0.95
	c30.127,19.333,65.184,29.591,100.982,29.541"/>
</svg>
