<svg id="Layer_1" data-name="Layer 1" xmlns="http://www.w3.org/2000/svg" viewBox="0 0 568 141.1">
  <title>LESC_NYC_logo_reversed</title>
  <g style="isolation: isolate">
    <path d="M8.6,10.6H35v96.1H73.8v19.6H8.6Z" fill="#fff"/>
    <path d="M92.5,10.6h68.2V30.2H118.8V56.6H156V76.3H118.9v30.5h41.9v19.6H92.6V10.6Z" fill="#fff"/>
    <path d="M180.6,106.4c2.4.2,5,.5,8,.7,2.5.2,5.4.4,8.6.4s6.7.1,10.5.1c4.9,0,8.9-.2,12-.5a22.72,22.72,0,0,0,7.5-1.9,7.85,7.85,0,0,0,3.9-3.7,15.83,15.83,0,0,0,1.1-6.3c0-3.9-.5-6.7-1.5-8.5s-3.5-3.3-7.5-4.6l-21.3-7a61,61,0,0,1-11.7-4.8,21.65,21.65,0,0,1-7.1-6.2,20.49,20.49,0,0,1-3.6-8.8,75.89,75.89,0,0,1-.9-12.8,45.44,45.44,0,0,1,2.3-15.2,23.21,23.21,0,0,1,7.4-10.5,33.41,33.41,0,0,1,13.3-6,86.62,86.62,0,0,1,19.9-2c3.6,0,7.2.1,10.7.3s6.6.5,9.4.7c3.2.3,6.2.7,9,1l-.3,19.7c-2.5-.1-5.2-.3-8-.5-2.4-.2-5.1-.4-8.3-.5s-6.3-.2-9.6-.2a99.93,99.93,0,0,0-10.4.4,16.29,16.29,0,0,0-6.4,1.8,7.63,7.63,0,0,0-3.2,3.7,18.29,18.29,0,0,0-.9,6.3c0,4,.6,6.8,1.9,8.6s3.9,3.3,7.8,4.5l22,6.5a46.53,46.53,0,0,1,11.7,5,20.06,20.06,0,0,1,6.6,6.7,25,25,0,0,1,2.9,9.1,86.2,86.2,0,0,1,.7,12c0,6.6-.9,12-2.6,16.3a22.85,22.85,0,0,1-7.9,10.4,33,33,0,0,1-13.6,5.5,102.86,102.86,0,0,1-19.8,1.6c-4.1,0-8.1-.1-11.9-.3s-7.3-.5-10.4-.7c-3.6-.3-7-.7-10.2-1Z" fill="#fff"/>
    <path d="M317.6,128.1c-9,0-16.2-.9-21.8-2.6a23.55,23.55,0,0,1-12.9-9.4c-3.1-4.5-5.1-10.6-6.1-18.2a233.39,233.39,0,0,1-1.5-29.2,235.78,235.78,0,0,1,1.5-29.4c1-7.7,3.1-13.8,6.1-18.3a23.79,23.79,0,0,1,12.9-9.4c5.6-1.8,12.9-2.6,22-2.6,3.5,0,7.1.1,10.7.3s6.9.5,9.9.7c3.5.3,6.9.7,10,1l-.3,18.9c-.7,0-1.7,0-3.1-.1s-3-.1-4.9-.3l-6-.3c-2.2-.1-4.3-.1-6.5-.1q-6.15,0-10.5.3a23,23,0,0,0-7.2,1.4,9.12,9.12,0,0,0-4.6,3.6,18.93,18.93,0,0,0-2.6,6.8,73.91,73.91,0,0,0-1.1,11.1c-.2,4.5-.3,10-.3,16.4,0,9.5.2,16.9.7,22.2s1.5,9.2,3.2,11.7a10.74,10.74,0,0,0,7.8,4.5,106.55,106.55,0,0,0,14.5.8c2,0,4.1,0,6.3-.1s4.2-.1,6-.3,3.5-.2,4.8-.3,2.4-.1,3.1-.1l.5,18.9c-3.2.3-6.5.7-10,1-3,.2-6.2.5-9.9.7C324.9,127.9,321.3,128.1,317.6,128.1Z" fill="#fff"/>
  </g>
  <g>
    <path d="M413.79,100.44q0,1.07,0,2.07c-.41-.77-.85-1.56-1.3-2.37l-26.9-47.77H370.55v78.86h15.18l-.23-47.3c0-.78,0-1.54,0-2.3.48.88,1,1.78,1.51,2.69l26.9,46.91h14.84V52.37H413.68Z" fill="#fff"/>
    <path d="M482.36,52.37,468.89,75.65c-.91,1.6-1.73,3.22-2.44,4.78-.69-1.56-1.47-3.2-2.35-4.81L451.38,52.37H434.26l24.58,43.87v35H474V96.28l25.66-43.91Z" fill="#fff"/>
    <path d="M545.85,121.09l-.18-3.55h-3.56a10.88,10.88,0,0,0-1.46.15,100.71,100.71,0,0,1-12,.9c-9.53,0-12.07-1.19-13.44-3.4-2.06-3.34-2.44-10.46-2.44-23.29,0-11.49.17-19.91,2.38-23.52C516.54,66.14,519,65,528.68,65a100.71,100.71,0,0,1,12,.9,12.06,12.06,0,0,0,1.46.14h3.55l.69-12.71-3.25-.6a102.85,102.85,0,0,0-16.63-1.42c-11,0-19.29,1.49-24,8.75-4.07,6.3-4.84,16-4.84,31.83s.77,25.44,4.85,31.7c4.69,7.2,13,8.68,24,8.68a104.18,104.18,0,0,0,16.63-1.42l3.07-.57v-3.12c0-1.38-.09-2.77-.19-4.11C545.94,122.41,545.89,121.75,545.85,121.09Z" fill="#fff"/>
  </g>
</svg>
