<?xml version="1.0" encoding="utf-8"?>
<!-- Generator: Adobe Illustrator 22.0.0, SVG Export Plug-In . SVG Version: 6.00 Build 0)  -->
<svg version="1.1" id="Layer_1" xmlns="http://www.w3.org/2000/svg" xmlns:xlink="http://www.w3.org/1999/xlink" x="0px" y="0px"
	 viewBox="0 0 576 360" style="enable-background:new 0 0 576 360;" xml:space="preserve">
<style type="text/css">
	.st1{fill:#FFFFFF;}
</style>
<g class="st0">
	<path class="st1" d="M19,163.5h12.8v105.8h46.1v9.9H19V163.5z"/>
	<path class="st1" d="M99.8,163.5h63.5v9.9h-50.7v39.5h46.3v9.9h-46.3v46.6h50.7v9.9H99.8V163.5z"/>
	<path class="st1" d="M187.6,269c0,0,11.7,1.7,27.1,1.7c24.8,0,30.1-3.4,30.1-20.1c0-12.4-0.5-16.5-12.8-20.2l-26-8.3
		c-17.7-5.8-20.9-11.7-20.9-30.1c0-23,9.5-30.1,39.5-30.1c13.8,0,26.9,2.2,26.9,2.2l-0.7,9.9c0,0-12.1-1.9-24.7-1.9
		c-23.5,0-28.6,3.1-28.6,19.6c0,12.8,1.2,16.2,12.8,19.7l26.5,8.3c18,5.8,20.4,12.9,20.4,30.8c0,23.5-9.4,30.5-40.5,30.5
		c-16.7,0-29.8-2.2-29.8-2.2L187.6,269z"/>
	<path class="st1" d="M280.5,221.6c0-49.2,4.8-59.7,40.7-59.7c13.8,0,25.9,2.2,25.9,2.2l-0.5,9.5c-0.7,0-11.6-1.7-21.8-1.7
		c-29.8,0-31.8,5.8-31.8,49.7c0,43.4,2.4,49.3,31.8,49.3c10.2,0,21.1-1.7,21.8-1.7c0.2,3.2,0.5,6.5,0.5,9.5c0,0-12.1,2.2-25.9,2.2
		C285.3,281,280.5,270.6,280.5,221.6z"/>
</g>
<path class="st1" d="M283.2,124.8c0-16.8,2-23.7,16.2-36.4l22.1-19.6c6.5-5.8,7.8-8,7.8-15.8c0-10.6-2.7-12.9-19.4-12.9
	c-13.1,0-24.5,1-24.5,1V22.5c0,0,13.4-2,28.1-2c33.4,0,42.2,8.8,42.2,29.4c0,15.8-3.2,19.9-17,32.5l-23.5,20.8
	c-7,5.8-7.1,7.8-7.1,15.5h47.5v19.2h-72.3L283.2,124.8L283.2,124.8z"/>
<path class="st1" d="M376.3,166.9c0,0,11.6,0.9,23,0.9c15.8,0,21.6-1.9,21.6-11.7v-5.4c0-10.4-5.6-12.9-15.8-12.9h-19.6v-19.2h18.7
	c8.5,0,14.6-3.1,14.6-13.3v-3.9c0-10.6-3.9-12.9-17.4-12.9c-12.1,0-25.2,1.2-25.2,1.2L376,71c0,0,12.1-2,29.6-2
	c29.8,0,38.6,6.8,38.6,31.5v3.4c0,20.2-17.4,23.8-17.4,23.8v0.9c0,0,19.1,2.6,19.1,23.3v5.8c0,22.5-12.9,30.5-40.3,30.5
	c-17.5,0-29.6-2-29.6-2L376.3,166.9z"/>
<g class="st0">
	<path class="st1" d="M375.8,244.6c0-33.2,3.2-40.3,27.5-40.3c9.3,0,17.5,1.5,17.5,1.5l-0.3,6.4c-0.5,0-7.8-1.1-14.7-1.1
		c-20.1,0-21.5,3.9-21.5,33.6c0,29.3,1.6,33.3,21.5,33.3c6.9,0,14.2-1.1,14.7-1.1c0.1,2.2,0.3,4.4,0.3,6.4c0,0-8.2,1.5-17.5,1.5
		C379,284.7,375.8,277.7,375.8,244.6z"/>
	<path class="st1" d="M434.7,244.6c0-33,3.7-40.3,27.8-40.3c24.4,0,27.9,7.4,27.9,40.3c0,32.8-3.6,40.1-27.9,40.1
		C438.4,284.7,434.7,277.3,434.7,244.6z M482.1,244.6c0-28.4-1.4-33.6-19.5-33.6s-19.4,5.2-19.4,33.6c0,28.2,1.3,33.3,19.4,33.3
		S482.1,272.7,482.1,244.6z"/>
	<path class="st1" d="M509.2,205.4c0,0,10.1-1.1,21.7-1.1c26.5,0,29.4,4.3,29.4,25.5c0,21.1-3,25.3-29.1,25.3
		c-5.5,0-10.5-0.2-13.4-0.5v29h-8.6L509.2,205.4L509.2,205.4z M531.4,248.6c19.3,0,20.6-2.8,20.6-18.8s-1.3-18.7-20.6-18.7
		c-5.3,0-10.3,0.1-13.6,0.3v36.9C521,248.5,526,248.6,531.4,248.6z"/>
</g>
</svg>
