<?xml version="1.0" encoding="utf-8"?>
<!-- Generator: Adobe Illustrator 22.0.0, SVG Export Plug-In . SVG Version: 6.00 Build 0)  -->
<svg version="1.1" id="Layer_1" xmlns="http://www.w3.org/2000/svg" xmlns:xlink="http://www.w3.org/1999/xlink" x="0px" y="0px"
	 viewBox="0 0 1152 562" style="enable-background:new 0 0 1152 562;" xml:space="preserve">
<style type="text/css">
	.st0{fill:#FFFFFF;}
</style>
<g>
	<path class="st0" d="M37,305.4h53v193.1h77.9v39.3H37V305.4z"/>
	<path class="st0" d="M205.5,305.4h137v39.3h-84.1v53h74.5v39.6h-74.5v61.2h84.1v39.3h-137V305.4z"/>
	<path class="st0" d="M382.5,497.8c0,0,24.6,2.4,54.3,2.4c39,0,49.2-4.4,49.2-24.9c0-15.4-2-21.5-18.1-26.3l-42.7-14
		c-38.3-12.3-46.8-24.6-46.8-65.3c0-47.8,23.2-67.7,86.1-67.7c29.7,0,58.4,4.1,58.4,4.1l-0.7,39.6c0,0-25.6-2.4-51.9-2.4
		c-33.8,0-42,3.8-42,24.6c0,16.1,3.4,21.2,19.5,26.3l44.1,13c39.3,11.6,43.7,29,43.7,66c0,52.6-26.3,68-88.2,68
		c-32.5,0-65.3-4.1-65.3-4.1L382.5,497.8z"/>
	<path class="st0" d="M572.5,422c0-95.4,13-120,85.4-120c28.4,0,61.5,4.1,61.5,4.1l-0.7,37.9c-5.1,0-23.9-1.4-41-1.4
		c-49.6,0-52.6,1.4-52.6,79.3c0,76.9,3.4,78.6,52.6,78.6c16.7,0,35.5-1.4,40.7-1.4l1,37.9c0,0-33.2,4.1-61.9,4.1
		C585.5,541.2,572.5,517,572.5,422z"/>
</g>
<path class="st0" d="M572.3,227.6c0-33.8,4.1-47.5,32.5-73.1l44.4-39.3c13-11.6,15.7-16.1,15.7-31.8c0-21.2-5.5-26-39-26
	c-26.3,0-49.2,2.1-49.2,2.1V22.2c0,0,27-4.1,56.4-4.1c67,0,84.8,17.8,84.8,59.1c0,31.8-6.5,40-34.2,65.3l-47.2,41.7
	c-14,11.6-14.4,15.7-14.4,31.1h95.3v38.6H572.3V227.6z"/>
<path class="st0" d="M759.5,312.1c0,0,23.2,1.7,46.1,1.7c31.8,0,43.4-3.8,43.4-23.6v-10.9c0-20.8-11.3-26-31.8-26h-39.3v-38.6h37.6
	c17.1,0,29.4-6.2,29.4-26.7v-7.9c0-21.2-7.9-26-34.9-26c-24.3,0-50.6,2.4-50.6,2.4l-0.3-37.6c0,0,24.3-4.1,59.5-4.1
	c59.8,0,77.6,13.7,77.6,63.2v6.8c0,40.7-34.9,47.8-34.9,47.8v1.7c0,0,38.3,5.1,38.3,46.8v11.6c0,45.1-26,61.2-81,61.2
	c-35.2,0-59.5-4.1-59.5-4.1L759.5,312.1z"/>
<g>
	<path class="st0" d="M754.9,468.2c0-64.4,8.8-81,57.7-81c19.2,0,41.5,2.8,41.5,2.8l-0.5,25.6c-3.5,0-16.2-0.9-27.7-0.9
		c-33.5,0-35.5,0.9-35.5,53.5c0,51.9,2.3,53.1,35.5,53.1c11.3,0,24-0.9,27.5-0.9l0.7,25.6c0,0-22.4,2.8-41.8,2.8
		C763.6,548.7,754.9,532.3,754.9,468.2z"/>
	<path class="st0" d="M877.6,468.2c0-64.4,9.2-81,59.5-81c51,0,60,16.6,60,81c0,63.9-9,80.5-60,80.5
		C886.9,548.7,877.6,532.1,877.6,468.2z M961.9,468.2c0-48-1.4-53.8-24.7-53.8c-22.6,0-24,5.8-24,53.8c0,47.8,1.4,53.3,24,53.3
		C960.5,521.5,961.9,515.9,961.9,468.2z"/>
	<path class="st0" d="M1028.1,389.5c0,0,23.3-2.3,49.8-2.3c54.5,0,64.4,9.9,64.4,55.4c0,42.9-11.1,51.9-61.8,51.9
		c-7.4,0-14.3-0.2-16.6-0.5v52.4h-35.8V389.5z M1081.4,470.2c24,0,25.4-3.7,25.4-27.7c0-26.1-1.4-28.2-25.4-28.2
		c-6.9,0-13.2,0-17.5,0.5v54.9C1068.3,470,1074.3,470.2,1081.4,470.2z"/>
</g>
</svg>
