<svg id="Layer_1" data-name="Layer 1" xmlns="http://www.w3.org/2000/svg" viewBox="0 0 568 279">
  <title>LESC_COP22_logo_reversed</title>
  <g style="isolation: isolate">
    <path d="M8.6,148.5H35v96.1H73.8v19.6H8.6Z" fill="#fff"/>
    <path d="M92.5,148.5h68.2v19.6H118.8v26.4H156v19.7H118.9v30.5h41.9v19.6H92.6V148.5Z" fill="#fff"/>
    <path d="M180.6,244.3c2.4.2,5,.5,8,.7,2.5.2,5.4.4,8.6.4s6.7.1,10.5.1c4.9,0,8.9-.2,12-.5a22.72,22.72,0,0,0,7.5-1.9,7.85,7.85,0,0,0,3.9-3.7,15.83,15.83,0,0,0,1.1-6.3c0-3.9-.5-6.7-1.5-8.5s-3.5-3.3-7.5-4.6l-21.3-7a61,61,0,0,1-11.7-4.8,21.65,21.65,0,0,1-7.1-6.2,20.49,20.49,0,0,1-3.6-8.8,75.89,75.89,0,0,1-.9-12.8,45.44,45.44,0,0,1,2.3-15.2,23.21,23.21,0,0,1,7.4-10.5,33.41,33.41,0,0,1,13.3-6,86.62,86.62,0,0,1,19.9-2c3.6,0,7.2.1,10.7.3s6.6.5,9.4.7c3.2.3,6.2.7,9,1l-.3,19.7c-2.5-.1-5.2-.3-8-.5-2.4-.2-5.1-.4-8.3-.5s-6.3-.2-9.6-.2a99.93,99.93,0,0,0-10.4.4,16.29,16.29,0,0,0-6.4,1.8,7.63,7.63,0,0,0-3.2,3.7,18.29,18.29,0,0,0-.9,6.3c0,4,.6,6.8,1.9,8.6s3.9,3.3,7.8,4.5l22,6.5a46.53,46.53,0,0,1,11.7,5,20.06,20.06,0,0,1,6.6,6.7,25,25,0,0,1,2.9,9.1,86.2,86.2,0,0,1,.7,12c0,6.6-.9,12-2.6,16.3a22.85,22.85,0,0,1-7.9,10.4A33,33,0,0,1,233,264a102.86,102.86,0,0,1-19.8,1.6c-4.1,0-8.1-.1-11.9-.3s-7.3-.5-10.4-.7c-3.6-.3-7-.7-10.2-1Z" fill="#fff"/>
    <path d="M317.6,266c-9,0-16.2-.9-21.8-2.6a23.55,23.55,0,0,1-12.9-9.4c-3.1-4.5-5.1-10.6-6.1-18.2a233.39,233.39,0,0,1-1.5-29.2,235.78,235.78,0,0,1,1.5-29.4c1-7.7,3.1-13.8,6.1-18.3a23.79,23.79,0,0,1,12.9-9.4c5.6-1.8,12.9-2.6,22-2.6,3.5,0,7.1.1,10.7.3s6.9.5,9.9.7c3.5.3,6.9.7,10,1l-.3,18.9c-.7,0-1.7,0-3.1-.1s-3-.1-4.9-.3l-6-.3c-2.2-.1-4.3-.1-6.5-.1q-6.15,0-10.5.3a23,23,0,0,0-7.2,1.4,9.12,9.12,0,0,0-4.6,3.6,18.93,18.93,0,0,0-2.6,6.8,73.91,73.91,0,0,0-1.1,11.1c-.2,4.5-.3,10-.3,16.4,0,9.5.2,16.9.7,22.2s1.5,9.2,3.2,11.7A10.74,10.74,0,0,0,313,245a106.55,106.55,0,0,0,14.5.8c2,0,4.1,0,6.3-.1s4.2-.1,6-.3,3.5-.2,4.8-.3,2.4-.1,3.1-.1l.5,18.9c-3.2.3-6.5.7-10,1-3,.2-6.2.5-9.9.7C324.9,265.8,321.3,266,317.6,266Z" fill="#fff"/>
  </g>
  <path d="M275.2,109.8c0-16.8,2-23.7,16.2-36.4l22.1-19.6c6.5-5.8,7.8-8,7.8-15.8,0-10.6-2.7-12.9-19.4-12.9-13.1,0-24.5,1-24.5,1V7.5a215.12,215.12,0,0,1,28.1-2c33.4,0,42.2,8.8,42.2,29.4,0,15.8-3.2,19.9-17,32.5L307.2,88.2c-7,5.8-7.1,7.8-7.1,15.5h47.5v19.2H275.3l-.1-13.1Z" fill="#fff"/>
  <g style="isolation: isolate">
    <path d="M394.7,269.7q-9.15,0-14.7-1.8a15.76,15.76,0,0,1-8.7-6.3c-2.1-3-3.4-7.1-4.1-12.3a152.67,152.67,0,0,1-1-19.7,153.32,153.32,0,0,1,1-19.8,30.14,30.14,0,0,1,4.1-12.4A16.15,16.15,0,0,1,380,191a50.14,50.14,0,0,1,14.8-1.8c2.4,0,4.8.1,7.2.2s4.7.3,6.7.5c2.4.2,4.6.5,6.8.7l-.2,12.8a18.75,18.75,0,0,1-2.1-.1c-.9,0-2-.1-3.3-.2s-2.6-.1-4.1-.2-2.9-.1-4.4-.1c-2.8,0-5.1.1-7.1.2a15.88,15.88,0,0,0-4.9.9,6.71,6.71,0,0,0-3.1,2.4,11.66,11.66,0,0,0-1.7,4.6,46.72,46.72,0,0,0-.7,7.5c-.1,3-.2,6.7-.2,11.1,0,6.4.2,11.4.5,15s1,6.2,2.2,7.9a7,7,0,0,0,5.3,3,80.57,80.57,0,0,0,9.8.5c1.4,0,2.8,0,4.3-.1s2.8-.1,4.1-.2,2.4-.1,3.3-.2,1.6-.1,2.1-.1l.3,12.8c-2.1.2-4.4.5-6.8.7-2,.2-4.2.3-6.7.5A62.28,62.28,0,0,1,394.7,269.7Z" fill="#fff"/>
    <path d="M456.8,269.7c-6.3,0-11.4-.6-15.2-1.8a16.5,16.5,0,0,1-9-6.3,27.79,27.79,0,0,1-4.3-12.3,150.27,150.27,0,0,1-1.1-19.7,150.85,150.85,0,0,1,1.1-19.8,28.72,28.72,0,0,1,4.3-12.4,16.52,16.52,0,0,1,9-6.4,52.63,52.63,0,0,1,15.2-1.8c6.4,0,11.5.6,15.4,1.8a16.76,16.76,0,0,1,9.1,6.4,28.72,28.72,0,0,1,4.3,12.4,152,152,0,0,1,1.1,19.8,150.27,150.27,0,0,1-1.1,19.7,27.79,27.79,0,0,1-4.3,12.3,16.76,16.76,0,0,1-9.1,6.3C468.3,269.1,463.2,269.7,456.8,269.7Zm0-13.6a23.78,23.78,0,0,0,6.8-.8,6,6,0,0,0,3.7-3.6,24.13,24.13,0,0,0,1.5-8c.2-3.5.3-8.2.3-14.2s-.1-10.7-.3-14.2a25.38,25.38,0,0,0-1.5-8.1,5.74,5.74,0,0,0-3.7-3.6,23.78,23.78,0,0,0-6.8-.8,22.74,22.74,0,0,0-6.6.8,5.83,5.83,0,0,0-3.6,3.6,25.38,25.38,0,0,0-1.5,8.1c-.2,3.5-.3,8.3-.3,14.2s.1,10.7.3,14.2a24.68,24.68,0,0,0,1.5,8,6.08,6.08,0,0,0,3.6,3.6A19.73,19.73,0,0,0,456.8,256.1Z" fill="#fff"/>
    <path d="M502.1,190.4c2.3-.2,4.8-.3,7.5-.6,2.3-.2,4.9-.3,7.9-.4s6.1-.2,9.5-.2a102.89,102.89,0,0,1,16.4,1.1c4.2.8,7.5,2.2,9.8,4.2a15.75,15.75,0,0,1,4.7,8.4,65.39,65.39,0,0,1,1.2,13.8,52.44,52.44,0,0,1-1.3,13.1,14.06,14.06,0,0,1-4.7,7.9,18.83,18.83,0,0,1-9.4,3.8,94,94,0,0,1-15.5,1c-1.8,0-3.5,0-5.1-.1a21,21,0,0,1-3.2-.2v26.1H502.1V190.4Zm17.8,40c1.1.1,2.4.1,3.8.2s3.1.1,4.9.1a41.19,41.19,0,0,0,7-.5,6.36,6.36,0,0,0,3.8-2A8.06,8.06,0,0,0,541,224a68.28,68.28,0,0,0,.3-7.2,74.23,74.23,0,0,0-.3-7.6,7.35,7.35,0,0,0-1.6-4.3,5.49,5.49,0,0,0-3.8-1.8,62.88,62.88,0,0,0-7-.3h-4.9a37.93,37.93,0,0,0-3.8.2Z" fill="#fff"/>
  </g>
  <path d="M366.1,156.7c0-16.8,2-23.7,16.2-36.4l22.1-19.6c6.5-5.8,7.8-8,7.8-15.8,0-10.6-2.7-12.9-19.4-12.9-13.1,0-24.5,1-24.5,1V54.5a215.12,215.12,0,0,1,28.1-2c33.4,0,42.2,8.8,42.2,29.4,0,15.8-3.2,19.9-17,32.5l-23.5,20.8c-7,5.8-7.1,7.8-7.1,15.5h47.5v19.2H366.2l-.1-13.2Z" fill="#fff"/>
</svg>
