<svg id="Layer_1" data-name="Layer 1" xmlns="http://www.w3.org/2000/svg" viewBox="0 0 1248.99 373.01">
  <title>LESC_COP23_logo</title>
  <g>
    <g>
      <path d="M14.26,120.36h53v193.1h77.9v39.3H14.26Z" fill="#fff"/>
      <path d="M182.76,120.36h137v39.3h-84.1v53h74.5v39.6h-74.5v61.2h84.1v39.3h-137Z" fill="#fff"/>
      <path d="M359.76,312.76s24.6,2.4,54.3,2.4c39,0,49.2-4.4,49.2-24.9,0-15.4-2-21.5-18.1-26.3l-42.7-14c-38.3-12.3-46.8-24.6-46.8-65.3,0-47.8,23.2-67.7,86.1-67.7a470.66,470.66,0,0,1,58.4,4.1l-.7,39.6s-25.6-2.4-51.9-2.4c-33.8,0-42,3.8-42,24.6,0,16.1,3.4,21.2,19.5,26.3l44.1,13c39.3,11.6,43.7,29,43.7,66,0,52.6-26.3,68-88.2,68a604.31,604.31,0,0,1-65.3-4.1Z" fill="#fff"/>
      <path d="M549.76,237c0-95.4,13-120,85.4-120,28.4,0,61.5,4.1,61.5,4.1L696,159c-5.1,0-23.9-1.4-41-1.4-49.6,0-52.6,1.4-52.6,79.3,0,76.9,3.4,78.6,52.6,78.6,16.7,0,35.5-1.4,40.7-1.4l1,37.9s-33.2,4.1-61.9,4.1C562.76,356.16,549.76,332,549.76,237Z" fill="#fff"/>
    </g>
    <path d="M1028.36,156.13c0-22.47,2.73-31.58,21.61-48.59l29.51-26.13c8.65-7.71,10.44-10.71,10.44-21.14,0-14.1-3.65-17.29-25.93-17.29-17.48,0-32.71,1.4-32.71,1.4V19.58a282.31,282.31,0,0,1,37.5-2.73c44.55,0,56.38,11.84,56.38,39.29,0,21.15-4.32,26.6-22.74,43.42L1071,127.28c-9.31,7.71-9.57,10.44-9.57,20.68h63.36v25.66h-96.47Z" fill="#fff"/>
    <path d="M1141.59,212.31s15.42,1.13,30.65,1.13c21.14,0,28.85-2.52,28.85-15.69v-7.24c0-13.83-7.51-17.29-21.14-17.29h-26.13V147.56h25c11.37,0,19.55-4.12,19.55-17.75v-5.25c0-14.1-5.26-17.29-23.21-17.29-16.15,0-33.64,1.59-33.64,1.59l-.2-25a262.38,262.38,0,0,1,39.56-2.73c39.76,0,51.59,9.11,51.59,42v4.52c0,27.06-23.2,31.78-23.2,31.78v1.13s25.46,3.39,25.46,31.11v7.72c0,30-17.28,40.68-53.85,40.68a263.32,263.32,0,0,1-39.56-2.72Z" fill="#fff"/>
    <g>
      <path d="M732.16,275.56c0-64.4,8.8-81,57.7-81,19.2,0,41.5,2.8,41.5,2.8l-.5,25.6c-3.5,0-16.2-.9-27.7-.9-33.5,0-35.5.9-35.5,53.5,0,51.9,2.3,53.1,35.5,53.1,11.3,0,24-.9,27.5-.9l.7,25.6s-22.4,2.8-41.8,2.8C740.86,356.06,732.16,339.66,732.16,275.56Z" fill="#fff"/>
      <path d="M854.86,275.56c0-64.4,9.2-81,59.5-81,51,0,60,16.6,60,81,0,63.9-9,80.5-60,80.5C864.16,356.06,854.86,339.46,854.86,275.56Zm84.3,0c0-48-1.4-53.8-24.7-53.8-22.6,0-24,5.8-24,53.8,0,47.8,1.4,53.3,24,53.3C937.76,328.86,939.16,323.26,939.16,275.56Z" fill="#fff"/>
      <path d="M1005.36,196.86s23.3-2.3,49.8-2.3c54.5,0,64.4,9.9,64.4,55.4,0,42.9-11.1,51.9-61.8,51.9-7.4,0-14.3-.2-16.6-.5v52.4h-35.8V196.86Zm53.3,80.7c24,0,25.4-3.7,25.4-27.7,0-26.1-1.4-28.2-25.4-28.2-6.9,0-13.2,0-17.5.5v54.9C1045.56,277.36,1051.56,277.56,1058.66,277.56Z" fill="#fff"/>
    </g>
  </g>
</svg>
